HIERARCHY
ROOT pelvis
{
  OFFSET 0 100 0
  CHANNELS 6 Xposition Yposition Zposition Zrotation Xrotation Yrotation
  JOINT pelvis_right_femur
  {
    OFFSET -10.78128 -3.44521 -0.5502486
    CHANNELS 3 Zrotation Xrotation Yrotation
    JOINT right_femur_tibia
    {
      OFFSET -0.8047443 -44.0398 -0.1307829
      CHANNELS 3 Zrotation Xrotation Yrotation
      JOINT right_tibia_foot
      {
        OFFSET 3.006224 -47.83518 -5
        CHANNELS 3 Zrotation Xrotation Yrotation
        End Site
        {
          OFFSET 0 -5 15
        }
      }
    }
  }
  JOINT pelvis_left_femur
  {
    OFFSET 10.78128 -3.44521 -0.5502486
    CHANNELS 3 Zrotation Xrotation Yrotation
    JOINT left_femur_tibia
    {
      OFFSET 0.8047443 -44.0398 -0.1307829
      CHANNELS 3 Zrotation Xrotation Yrotation
      JOINT left_tibia_foot
      {
        OFFSET -4.370144 -48.10324 -4.275266
        CHANNELS 3 Zrotation Xrotation Yrotation
        End Site
        {
          OFFSET 0 -5 15
        }
      }
    }
  }
  JOINT pelvis_spine1
  {
    OFFSET 0 6.468898 -3.129235
    CHANNELS 3 Zrotation Xrotation Yrotation
    JOINT spine1
    {
      OFFSET 0 23.15396 4.99043
      CHANNELS 3 Zrotation Xrotation Yrotation
      JOINT spine2
      {
        OFFSET 0 20.79997 -5.064912
        CHANNELS 3 Zrotation Xrotation Yrotation
        JOINT neck
        {
          OFFSET 0 14.38658 9.616178
          CHANNELS 3 Zrotation Xrotation Yrotation
          End Site
          {
            OFFSET 0 20 0
          }
        }
      }
      JOINT right_manubrium
      {
        OFFSET -5.722621 16.35077 3.967754
        CHANNELS 3 Zrotation Xrotation Yrotation
        JOINT right_clavicle
        {
          OFFSET -13.16364 1.694482 -4.693211
          CHANNELS 3 Zrotation Xrotation Yrotation
          JOINT right_humerus
          {
            OFFSET -28.5034 -0.3100689 -2.792744
            CHANNELS 3 Zrotation Xrotation Yrotation
            JOINT right_radius
            {
              OFFSET -25.15693 0.02248979 -1.271978
              CHANNELS 3 Zrotation Xrotation Yrotation
              End Site
              {
                OFFSET -15 0 0
              }
            }
          }
        }
      }
      JOINT left_manubrium
      {
        OFFSET 5.722621 16.35077 3.967754
        CHANNELS 3 Zrotation Xrotation Yrotation
        JOINT left_clavicle
        {
          OFFSET 13.16364 1.694482 -4.693211
          CHANNELS 3 Zrotation Xrotation Yrotation
          JOINT left_humerus
          {
            OFFSET 29.39168 -1.063119 -2.237045
            CHANNELS 3 Zrotation Xrotation Yrotation
            JOINT left_radius
            {
              OFFSET 24.59957 -0.9528479 0.9047498
              CHANNELS 3 Zrotation Xrotation Yrotation
              End Site
              {
                OFFSET 15 -0 -0
              }
            }
          }
        }
      }
    }
  }
}
MOTION
Frames: 13
Frame Time: 0.0416666666667
1486.36 96.30332 2494.553 6.299504 -1.594127 57.47335 -0.289042 16.90126 4.841832 -0 37.3556 -0 0.2168223 -2.096772 -1.663161 -3.388433 -20.01135 -7.375061 -0 22.2827 -0 -3.959078 -8.352747 19.30222 -2.967688 -0.852286 8.002549 -1.53132 9.587836 -2.514914 2.546823 22.31559 5.027753 2.353667 -17.67327 7.074188 1.379264 -20.4441 10.65412 82.06303 24.66121 -6.334707 -0 0 21.50825 -25.04221 10.40376 14.1773 3.867295 -14.97353 -3.056978 -93.92459 23.32808 25.96062 0 0 -7.452436 -1.849397 8.22057 15.71593
1492.855 97.21999 2497.223 7.02394 -1.539342 58.25808 -0.5701795 13.21453 4.864843 -0 46.5812 -0 0.3820667 1.646126 -3.142668 -4.664388 -15.93864 -7.633658 -0 23.80366 -0 -2.970434 -9.348871 18.62739 -3.414131 -0.8845323 7.550124 -1.486535 10.21428 -3.09365 2.320188 22.14848 5.057653 2.181744 -17.73432 6.963605 2.001078 -20.03535 10.93826 83.63245 24.81198 -8.364371 -0 0 19.91024 -24.38523 10.7457 13.74347 3.381201 -15.55097 -3.549619 -92.71547 23.38414 25.12366 0 0 -8.461671 -1.920677 7.588553 16.21302
1499.026 98.543 2499.715 7.313364 -1.526118 59.3273 -0.4696879 7.936935 4.505815 -0 53.11186 -0 1.255969 3.232952 -4.748232 -5.37705 -11.48645 -7.329085 -0 23.44814 -0 -2.431029 -10.71971 17.7752 -3.617554 -0.5823106 6.805117 -1.181084 10.64393 -4.049197 1.867242 21.97771 5.399091 1.970994 -17.68226 6.98352 2.993483 -19.41884 11.19065 84.47118 26.16069 -10.32746 -0 0 18.37639 -24.35267 11.86457 13.57833 3.079046 -16.29308 -3.833037 -90.73207 23.45219 22.98245 0 0 -10.42225 -1.916401 6.806251 16.49181
1504.838 99.84744 2502.038 7.634491 -1.823149 60.55859 -0.1087244 1.809884 4.050009 -0 55.47815 -0 1.741822 2.99128 -6.104868 -5.611575 -6.446976 -7.134648 -0 21.45652 -0 -2.179816 -12.09051 17.08199 -3.511944 -0.06630104 5.69679 -0.8059847 10.84281 -4.986305 1.567392 22.0972 5.671683 1.690025 -17.19135 7.142512 3.34453 -18.63014 11.21462 85.56638 26.74102 -12.16057 -0 0 16.93365 -24.2162 12.51698 13.37808 3.155423 -17.12359 -4.20713 -88.5019 23.37952 19.64431 0 0 -12.60656 -1.570665 6.354983 15.97062
1510.301 100.7738 2504.239 8.154533 -2.394582 61.85061 0.3294086 -4.466087 3.628378 -0 53.95116 -0 1.041849 1.790253 -7.064352 -5.535735 -0.8827527 -7.470807 -0 18.72197 -0 -2.121107 -13.48369 16.51242 -3.14269 0.4424748 4.353564 -0.4653621 10.77221 -5.733131 1.603723 22.55243 5.592697 1.329887 -16.50442 7.337283 2.635585 -17.84579 10.97505 87.34358 25.54095 -13.96802 -0 0 15.47736 -23.3766 12.05369 12.90608 3.509979 -17.94703 -4.776396 -86.54605 23.52444 15.94624 0 0 -14.75211 -1.253853 6.551628 15.19317
1515.448 101.2026 2506.366 8.294898 -2.828518 63.06063 0.672347 -10.64126 3.144041 -0 49.56118 -0 -0.1964745 0.3285671 -7.644979 -5.284002 4.453409 -8.228239 -0 15.98015 -0 -2.517605 -15.14195 15.71984 -2.697148 0.7952035 3.123987 -0.09188237 10.39199 -6.393079 1.783935 23.01572 5.468687 1.098497 -16.19458 7.583012 1.699898 -17.09111 10.61546 88.92431 24.10391 -15.71707 -0 0 14.12335 -22.33257 11.44861 12.29627 3.994757 -18.71459 -5.253355 -85.11104 24.18709 12.80456 0 0 -16.95152 -1.264239 7.440205 14.85311
1520.342 101.145 2508.452 7.669526 -2.88044 64.08554 0.8953887 -16.57732 2.628856 -0 43.38015 -0 -1.147908 -1.085315 -7.908729 -4.982606 8.973395 -9.161545 -0 13.69098 -0 -3.393228 -17.04565 14.64298 -2.342402 0.9624458 2.258966 0.3525146 9.794489 -7.037099 1.920479 23.19829 5.580198 1.138745 -16.4325 7.900039 1.274083 -16.34295 10.27419 89.70879 23.82505 -17.4149 -0 0 13.06719 -21.4562 11.51273 11.61827 4.538528 -19.41384 -5.434243 -84.20857 25.28021 10.59989 0 0 -19.22091 -1.525057 8.707989 15.02163
1525.076 100.6633 2510.531 6.395452 -2.561495 64.91307 1.071043 -21.91158 2.182715 -0 36.25506 -0 -1.634329 -2.297955 -7.918613 -4.732867 12.46441 -10.06097 -0 12.22643 -0 -4.52844 -18.96361 13.46186 -2.153489 0.9937204 1.809173 0.819938 9.104412 -7.607876 1.99554 23.06045 5.875671 1.420559 -17.0225 8.223486 1.454587 -15.59182 9.992976 89.79154 24.84163 -19.01444 -0 0 12.33519 -20.6099 12.151 10.81228 5.107503 -20.01363 -5.31211 -83.74838 26.54319 9.242644 0 0 -21.35342 -1.824229 9.947419 15.40923
1529.786 99.85015 2512.656 4.926909 -2.004234 65.60411 1.219047 -26.02772 1.831091 -0 29.02017 -0 -1.788211 -3.159389 -7.793014 -4.597785 14.88589 -10.69325 -0 11.86866 -0 -5.683386 -20.55928 12.38244 -2.141794 0.9711577 1.695882 1.209029 8.435506 -7.987502 2.066736 22.73834 6.178809 1.810737 -17.60259 8.481117 1.98985 -14.81029 9.765224 89.5469 26.59166 -20.35093 -0 0 11.77069 -19.73059 12.97654 9.920125 5.662474 -20.47515 -4.995126 -83.50605 27.58463 8.325112 0 0 -23.05987 -1.922081 10.82711 15.60731
1534.646 98.79472 2514.898 3.894696 -1.411751 66.24994 1.233084 -28.3173 1.501492 -0 22.64307 -0 -1.721131 -3.620754 -7.757263 -4.581595 16.40611 -10.81535 -0 12.64405 -0 -6.681717 -21.47488 11.54163 -2.267211 0.9502682 1.758029 1.412438 7.905905 -8.103365 2.182628 22.44518 6.341541 2.125073 -17.75425 8.632367 2.499744 -13.96771 9.580563 89.38348 28.18604 -21.27971 -0 0 11.12657 -19.12681 13.74914 9.159802 6.152762 -20.80489 -4.669847 -83.08386 27.9155 7.204426 0 0 -24.19812 -1.62768 11.16294 15.23462
1539.826 97.58648 2517.331 3.719621 -0.9767139 66.91207 1.047573 -28.64937 1.198313 -0 17.98825 -0 -1.424441 -3.841957 -8.042793 -4.61522 17.4145 -10.32578 -0 14.39611 -0 -7.403522 -21.44555 10.99469 -2.439568 0.8925163 1.835217 1.406647 7.623033 -8.022757 2.338293 22.31577 6.308044 2.219341 -17.26207 8.667487 2.711851 -13.08715 9.450808 89.56613 28.91353 -21.85625 -0 0 10.2449 -19.17072 14.47804 8.738375 6.529324 -21.06313 -4.492455 -82.18828 27.20283 5.442237 0 0 -24.90069 -0.8817128 10.9527 14.12493
1545.431 96.37539 2519.999 4.248881 -0.8001832 67.57977 0.9044438 -27.52605 1.176457 -0 15.46582 -0 -0.9383881 -4.088883 -8.653235 -4.578983 18.26881 -9.443104 -0 17.20966 -0 -7.787533 -20.34533 10.77761 -2.521999 0.6920115 1.852747 1.29685 7.623721 -7.901777 2.484358 22.31799 6.113516 2.086723 -16.36369 8.605877 2.647328 -12.27107 9.40716 90.09719 28.76227 -22.29624 -0 0 9.169355 -19.69194 15.19991 8.580685 6.74859 -21.26995 -4.452304 -81.03433 25.62275 3.351466 0 0 -25.38066 0.2165669 10.36367 12.4509
1551.459 95.40492 2522.913 4.887846 -0.9200068 68.15538 1.277336 -25.683 1.744181 -0 14.93726 -0 -0.5487651 -4.461835 -9.26897 -4.33758 18.98143 -8.643703 -0 21.6508 -0 -7.921818 -18.16017 10.91192 -2.350789 0.2995681 1.82238 1.245971 7.852825 -7.84019 2.564678 22.34069 5.846433 1.858406 -15.65275 8.477187 2.555433 -11.66505 9.484508 90.75197 28.33739 -22.7562 -0 0 8.051341 -19.96556 15.77605 8.37276 6.761145 -21.35256 -4.395688 -80.2238 23.91039 1.865845 0 0 -25.65735 1.432442 9.699768 10.6878
